<svg xmlns="http://www.w3.org/2000/svg" viewBox="0 0 204.2 66.8"><defs><style>.cls-1{fill:#1d1d1b;}.cls-2{fill:#fff;}</style></defs><title>Recurso 2</title><g id="Capa_2" data-name="Capa 2"><g id="Capa_1-2" data-name="Capa 1"><path class="cls-1" d="M9,0H195.17a9,9,0,0,1,9,9V57.77a9,9,0,0,1-9,9H9a9,9,0,0,1-9-9V9A9,9,0,0,1,9,0Z"/><path class="cls-2" d="M35.27,11.42H18.63A3.61,3.61,0,0,0,15,15V51.88a3.61,3.61,0,0,0,3.61,3.61H35.27a3.61,3.61,0,0,0,3.61-3.61V15A3.61,3.61,0,0,0,35.27,11.42ZM27,52.84a2.4,2.4,0,1,1,2.4-2.41A2.4,2.4,0,0,1,27,52.84Zm9.09-6H17.86V19.68H36Z"/><path class="cls-2" d="M52.5,18l-1,3.06h-1.3l3.31-9.74H55l3.32,9.74H57L56,18Zm3.19-1-1-2.8c-.2-.64-.35-1.21-.49-1.78h0c-.13.56-.29,1.17-.48,1.76l-1,2.82Z"/><path class="cls-2" d="M59.64,14.06,61,18c.23.65.42,1.23.56,1.8h0c.16-.58.36-1.16.59-1.8l1.36-3.92h1.33l-2.75,7H60.93l-2.66-7Z"/><path class="cls-2" d="M70.74,19.38a11.68,11.68,0,0,0,.1,1.67H69.7l-.12-.88h0a2.58,2.58,0,0,1-2.14,1,2,2,0,0,1-2.14-2c0-1.69,1.5-2.61,4.2-2.6v-.14a1.43,1.43,0,0,0-1.59-1.62,3.37,3.37,0,0,0-1.83.52l-.29-.85a4.54,4.54,0,0,1,2.31-.61c2.15,0,2.67,1.46,2.67,2.86ZM69.5,17.48c-1.39,0-3,.22-3,1.58a1.11,1.11,0,0,0,1.18,1.21,1.77,1.77,0,0,0,1.72-1.17,1.32,1.32,0,0,0,.06-.41Z"/><path class="cls-2" d="M73.31,12.78a.82.82,0,0,1,0-1.63.78.78,0,0,1,.81.81.8.8,0,0,1-.82.82Zm-.61,8.28v-7H74v7Z"/><path class="cls-2" d="M76,10.8h1.27V21.05H76Z"/><path class="cls-2" d="M84.25,19.38a11.77,11.77,0,0,0,.1,1.67H83.21l-.12-.88h0a2.58,2.58,0,0,1-2.14,1,2,2,0,0,1-2.14-2c0-1.69,1.5-2.61,4.2-2.6v-.14a1.44,1.44,0,0,0-1.59-1.62,3.36,3.36,0,0,0-1.83.52l-.29-.85a4.54,4.54,0,0,1,2.31-.61c2.15,0,2.67,1.46,2.67,2.86ZM83,17.48c-1.39,0-3,.22-3,1.58a1.11,1.11,0,0,0,1.18,1.21,1.77,1.77,0,0,0,1.72-1.17A1.29,1.29,0,0,0,83,18.7Z"/><path class="cls-2" d="M86.21,10.8h1.27v4.38h0a2.59,2.59,0,0,1,2.38-1.27c1.73,0,2.95,1.44,2.95,3.55,0,2.51-1.59,3.76-3.15,3.76a2.5,2.5,0,0,1-2.34-1.31h0l-.07,1.16h-1.1c0-.48.06-1.18.06-1.8Zm1.27,7.45a2.3,2.3,0,0,0,0,.46,2,2,0,0,0,1.91,1.49c1.34,0,2.12-1.08,2.12-2.69,0-1.42-.72-2.61-2.08-2.61a2.11,2.11,0,0,0-2,2.09Z"/><path class="cls-2" d="M94.36,10.8h1.27V21.05H94.36Z"/><path class="cls-2" d="M98.38,17.77a2.23,2.23,0,0,0,2.38,2.43,4.82,4.82,0,0,0,1.94-.35l.23.9a5.68,5.68,0,0,1-2.34.45,3.26,3.26,0,0,1-3.44-3.52c0-2.12,1.26-3.78,3.29-3.78,2.28,0,2.87,2,2.87,3.29a3.28,3.28,0,0,1,0,.61Zm3.71-.91a1.82,1.82,0,0,0-1.75-2.07,2.1,2.1,0,0,0-1.95,2.07Z"/><path class="cls-2" d="M110.66,21.21a3.33,3.33,0,0,1-3.35-3.6,3.42,3.42,0,0,1,3.47-3.71,3.31,3.31,0,0,1,3.36,3.58,3.43,3.43,0,0,1-3.47,3.73Zm0-1c1.21,0,2.12-1.14,2.12-2.73,0-1.18-.59-2.67-2.09-2.67s-2.14,1.39-2.14,2.72c0,1.53.87,2.69,2.09,2.69Z"/><path class="cls-2" d="M115.67,16c0-.74,0-1.31-.06-1.89h1.13l.07,1.14h0a2.59,2.59,0,0,1,2.31-1.3c1,0,2.47.58,2.47,3v4.17h-1.27V17c0-1.12-.42-2.08-1.62-2.08a1.83,1.83,0,0,0-1.7,1.3,1.9,1.9,0,0,0-.09.59v4.22h-1.27Z"/><path class="cls-2" d="M128.14,12.39v1.67H130v1h-1.82V18.8c0,.87.25,1.36,1,1.36a2.36,2.36,0,0,0,.74-.09l.06,1a3.45,3.45,0,0,1-1.13.17,1.82,1.82,0,0,1-1.37-.53,2.74,2.74,0,0,1-.49-1.84V15h-1.08v-1h1.08V12.78Z"/><path class="cls-2" d="M131.31,10.8h1.27v4.36h0a2.26,2.26,0,0,1,.91-.9,2.47,2.47,0,0,1,1.3-.36c.94,0,2.44.58,2.44,3v4.16H136V17c0-1.14-.42-2.08-1.62-2.08a1.84,1.84,0,0,0-1.7,1.27,1.54,1.54,0,0,0-.09.61v4.22h-1.27Z"/><path class="cls-2" d="M140,17.77a2.23,2.23,0,0,0,2.38,2.43,4.83,4.83,0,0,0,1.94-.35l.23.9a5.7,5.7,0,0,1-2.34.45,3.26,3.26,0,0,1-3.44-3.52c0-2.12,1.26-3.78,3.29-3.78,2.28,0,2.87,2,2.87,3.29a3.28,3.28,0,0,1,0,.61Zm3.71-.91a1.82,1.82,0,0,0-1.75-2.07,2.1,2.1,0,0,0-2,2.07Z"/><path class="cls-2" d="M150,12.78a.82.82,0,0,1,0-1.63.78.78,0,0,1,.81.81.8.8,0,0,1-.83.82Zm-.61,8.28v-7h1.27v7Z"/><path class="cls-2" d="M152.76,11.45a13.06,13.06,0,0,1,2.41-.2,4,4,0,0,1,2.73.81,2.62,2.62,0,0,1,.87,2,2.81,2.81,0,0,1-.77,2.08,4,4,0,0,1-3,1.07,4.42,4.42,0,0,1-1-.09v3.9h-1.26ZM154,16.13a4.28,4.28,0,0,0,1,.1c1.53,0,2.44-.75,2.44-2.07s-.91-1.92-2.3-1.92a6.24,6.24,0,0,0-1.18.1Z"/><path class="cls-2" d="M160.25,10.8h1.27v4.36h0a2.26,2.26,0,0,1,.91-.9,2.48,2.48,0,0,1,1.3-.36c.94,0,2.44.58,2.44,3v4.16h-1.27V17c0-1.14-.42-2.08-1.62-2.08a1.84,1.84,0,0,0-1.7,1.27,1.54,1.54,0,0,0-.09.61v4.22h-1.27Z"/><path class="cls-2" d="M171,21.21a3.33,3.33,0,0,1-3.35-3.6,3.42,3.42,0,0,1,3.47-3.71,3.31,3.31,0,0,1,3.36,3.58,3.43,3.43,0,0,1-3.47,3.73Zm0-1c1.21,0,2.12-1.14,2.12-2.73,0-1.18-.59-2.67-2.1-2.67S169,16.24,169,17.57c0,1.53.87,2.69,2.09,2.69Z"/><path class="cls-2" d="M176.06,16c0-.74,0-1.31-.06-1.89h1.13l.07,1.14h0a2.59,2.59,0,0,1,2.31-1.3c1,0,2.47.58,2.47,3v4.17h-1.27V17c0-1.12-.42-2.08-1.62-2.08a1.83,1.83,0,0,0-1.7,1.3,1.87,1.87,0,0,0-.09.59v4.22h-1.27Z"/><path class="cls-2" d="M184.72,17.77a2.23,2.23,0,0,0,2.38,2.43,4.81,4.81,0,0,0,1.93-.35l.23.9a5.7,5.7,0,0,1-2.34.45,3.26,3.26,0,0,1-3.44-3.52c0-2.12,1.26-3.78,3.29-3.78,2.28,0,2.87,2,2.87,3.29a3.29,3.29,0,0,1,0,.61Zm3.71-.91a1.82,1.82,0,0,0-1.75-2.07,2.1,2.1,0,0,0-2,2.07Z"/><path class="cls-2" d="M58.48,27.65,49.92,52.86h3.92l2.56-7.74h8.29l2.63,7.74h4l-8.6-25.21Zm2,4.14c.29,1.13.6,2.29,1,3.56L63.83,42H57.26l2.28-6.73C59.88,34.21,60.21,33,60.52,31.79Z"/><path class="cls-2" d="M82.43,34.18a7.14,7.14,0,0,0-6.06,2.91l-.15-2.51H72.73l0,.32c.1,1.56.15,3.28.15,5.75V60.08h3.81V51a6.7,6.7,0,0,0,5.21,2.24A7.86,7.86,0,0,0,87.7,50.8a10.42,10.42,0,0,0,2.55-7.34A10.14,10.14,0,0,0,88,36.76,7.26,7.26,0,0,0,82.43,34.18Zm-1,3.16c3.4,0,4.92,3.15,4.92,6.27,0,4-1.94,6.53-5.07,6.53a4.62,4.62,0,0,1-4.49-3.54,4.88,4.88,0,0,1-.14-1.24V42.29a5.7,5.7,0,0,1,.12-.94c0-.1,0-.21.05-.31A4.83,4.83,0,0,1,81.48,37.34Z"/><path class="cls-2" d="M102.07,34.18A7.14,7.14,0,0,0,96,37.09l-.15-2.51H92.37l0,.32c.1,1.56.15,3.28.15,5.75V60.08h3.81V51a6.69,6.69,0,0,0,5.21,2.24,7.87,7.87,0,0,0,5.78-2.46,10.43,10.43,0,0,0,2.55-7.34,10.15,10.15,0,0,0-2.22-6.7A7.25,7.25,0,0,0,102.07,34.18Zm-.95,3.16c3.4,0,4.92,3.15,4.92,6.27,0,4-1.94,6.53-5.07,6.53a4.62,4.62,0,0,1-4.49-3.54,4.89,4.89,0,0,1-.13-1.24V42.29a5.53,5.53,0,0,1,.12-.94l.05-.31A4.83,4.83,0,0,1,101.12,37.34Z"/><path class="cls-2" d="M126.68,38.33c-3.56-1.38-4.7-2.46-4.7-4.47,0-1.69,1.34-3.39,4.34-3.39a8.67,8.67,0,0,1,4.48,1.12l.32.2,1.08-3.18-.21-.12a11,11,0,0,0-5.55-1.25c-4.86,0-8.26,2.87-8.26,7,0,3.31,2.13,5.63,6.69,7.29,3.24,1.21,4.44,2.45,4.44,4.57,0,2.4-1.86,3.9-4.85,3.9a10.44,10.44,0,0,1-5.5-1.56l-.33-.21-1,3.26.19.12a13.06,13.06,0,0,0,6.45,1.66c6.56,0,8.88-4,8.88-7.42S131.25,40.13,126.68,38.33Z"/><path class="cls-2" d="M140,30.24l-3.74,1.17v3.17H133.5v3h2.74V47c0,2.26.43,3.84,1.32,4.84a4.89,4.89,0,0,0,3.69,1.45,9,9,0,0,0,2.95-.46l.21-.08-.18-3.05-.37.11a5.76,5.76,0,0,1-1.77.21c-1.48,0-2.11-.94-2.11-3.13V37.63h4.6v-3H140Z"/><path class="cls-2" d="M154,34.18c-5.34,0-9.06,4-9.06,9.68,0,5.53,3.61,9.39,8.77,9.39h0c4.37,0,9.06-3,9.06-9.72a9.64,9.64,0,0,0-2.43-6.75A8.49,8.49,0,0,0,154,34.18Zm-.11,3c3.43,0,5,3.34,5,6.45,0,3.82-2.13,6.6-5.07,6.6h0c-2.89,0-5-2.73-5-6.49C148.82,40.49,150.39,37.19,153.92,37.19Z"/><path class="cls-2" d="M174.52,34.36l-.23-.06a3.67,3.67,0,0,0-.95-.12,5.44,5.44,0,0,0-4.78,3.07l-.11-2.67H165l0,.32c.1,1.51.14,3.2.14,5.49l0,12.46H169V43.13a10,10,0,0,1,.1-1.48c.43-2.34,2-3.84,4-3.84a9.75,9.75,0,0,1,1,.06l.41,0Z"/><path class="cls-2" d="M183.09,34.15c-5.08,0-8.62,4.06-8.62,9.87,0,5.59,3.53,9.21,9,9.21a14.64,14.64,0,0,0,6-1.16l.23-.1L189,49.12l-.32.13a11.82,11.82,0,0,1-4.78.85c-1.66,0-5.48-.55-5.71-5.53l12.31,0,0-.24a8.43,8.43,0,0,0,.12-1.59C190.66,38.79,188.68,34.15,183.09,34.15Zm-.25,2.9a3.76,3.76,0,0,1,2.8,1.07A5.42,5.42,0,0,1,187,41.67h-8.7C178.61,39.46,180,37,182.84,37Z"/></g></g></svg>