<svg xmlns="http://www.w3.org/2000/svg" xmlns:xlink="http://www.w3.org/1999/xlink" viewBox="0 0 204.2 66.8"><defs><style>.cls-1{fill:none;}.cls-2{fill:#1d1d1b;}.cls-3{clip-path:url(#clip-path);}.cls-4{fill:url(#linear-gradient);}.cls-5{fill:url(#linear-gradient-2);}.cls-6{fill:url(#linear-gradient-3);}.cls-7{fill:url(#linear-gradient-4);}.cls-8{fill:#f9f9f9;}.cls-9{fill:#fcfcfc;}</style><clipPath id="clip-path"><path class="cls-1" d="M44.25,29.4,35,24.09,17.28,13.83c-1-.57-2-.22-2,1V56.58c0,.89.7,1.28,1.56.78L35,46.87l9.21-5.32,8.85-5.11c1-.6.94-1.42.06-1.89S44.25,29.4,44.25,29.4Z"/></clipPath><linearGradient id="linear-gradient" x1="26.72" y1="12.86" x2="26.72" y2="58.09" gradientUnits="userSpaceOnUse"><stop offset="0" stop-color="#207ab0"/><stop offset="0.32" stop-color="#4a98b5"/><stop offset="0.78" stop-color="#81c0bb"/><stop offset="1" stop-color="#97cfbe"/></linearGradient><linearGradient id="linear-gradient-2" x1="15.32" y1="24.09" x2="44.25" y2="24.09" gradientUnits="userSpaceOnUse"><stop offset="0" stop-color="#59bbaa"/><stop offset="1" stop-color="#e6e89a"/></linearGradient><linearGradient id="linear-gradient-3" x1="29.78" y1="35.48" x2="29.78" y2="58.26" gradientUnits="userSpaceOnUse"><stop offset="0" stop-color="#e43332"/><stop offset="0.16" stop-color="#d43643"/><stop offset="0.73" stop-color="#a23e7a"/><stop offset="1" stop-color="#8e4190"/></linearGradient><linearGradient id="linear-gradient-4" x1="46.45" y1="29.4" x2="46.45" y2="41.55" gradientUnits="userSpaceOnUse"><stop offset="0" stop-color="#f08779"/><stop offset="0.63" stop-color="#f8b474"/><stop offset="1" stop-color="#fcca72"/></linearGradient></defs><title>Recurso 3</title><g id="Capa_2" data-name="Capa 2"><g id="Capa_1-2" data-name="Capa 1"><path class="cls-2" d="M9,0H195.17a9,9,0,0,1,9,9V57.77a9,9,0,0,1-9,9H9a9,9,0,0,1-9-9V9A9,9,0,0,1,9,0Z"/><g id="PLAY"><g class="cls-3"><polygon class="cls-4" points="15.32 12.86 15.32 35.48 15.32 58.09 38.13 35.48 15.32 12.86"/><polygon class="cls-5" points="44.25 29.4 35.05 24.09 15.32 12.7 15.32 12.86 38.13 35.48 44.25 29.4"/><polygon class="cls-6" points="15.32 58.09 15.32 58.26 35.05 46.87 44.25 41.55 38.13 35.48 15.32 58.09"/><polygon class="cls-7" points="44.25 29.4 38.13 35.48 44.25 41.55 54.77 35.48 44.25 29.4"/></g></g><path class="cls-8" d="M158.92,44.32a5.69,5.69,0,0,1-2.35-.47,4.42,4.42,0,0,1-1.78-1.46h-.14a17.66,17.66,0,0,1,.14,2.18V50h-2V30.92h1.62l.28,1.8h.1a4.63,4.63,0,0,1,1.79-1.56,5.44,5.44,0,0,1,2.34-.48,4.86,4.86,0,0,1,4,1.79,7.87,7.87,0,0,1,1.42,5,7.84,7.84,0,0,1-1.45,5A4.87,4.87,0,0,1,158.92,44.32Zm-.29-11.94a3.53,3.53,0,0,0-2.92,1.12,5.75,5.75,0,0,0-.92,3.55v.44a6.58,6.58,0,0,0,.92,4,3.52,3.52,0,0,0,3,1.19,3.08,3.08,0,0,0,2.67-1.38,6.55,6.55,0,0,0,1-3.81,6.3,6.3,0,0,0-1-3.77A3.18,3.18,0,0,0,158.63,32.38Z"/><path class="cls-8" d="M169,44.08h-2V25.4h2Z"/><path class="cls-8" d="M180.45,44.08l-.4-1.87H180a5.52,5.52,0,0,1-2,1.67,6,6,0,0,1-2.44.44,4.39,4.39,0,0,1-3.07-1,3.68,3.68,0,0,1-1.11-2.87q0-4,6.37-4.18l2.23-.07v-.82a3.33,3.33,0,0,0-.67-2.29,2.74,2.74,0,0,0-2.13-.74,8.68,8.68,0,0,0-3.72,1l-.61-1.52A9.37,9.37,0,0,1,175,31a9.23,9.23,0,0,1,2.32-.3,5,5,0,0,1,3.49,1,4.36,4.36,0,0,1,1.13,3.35v9Zm-4.5-1.4a4,4,0,0,0,2.92-1,3.78,3.78,0,0,0,1.06-2.86V37.61l-2,.08a7.25,7.25,0,0,0-3.43.74,2.23,2.23,0,0,0-1,2,2,2,0,0,0,.65,1.64A2.71,2.71,0,0,0,175.94,42.67Z"/><path class="cls-8" d="M183.08,30.92h2.14l2.88,7.5a28.66,28.66,0,0,1,1.18,3.71h.1q.16-.61.65-2.1t3.26-9.12h2.14l-5.65,15a7.47,7.47,0,0,1-2,3.15A4.17,4.17,0,0,1,185,50a8,8,0,0,1-1.8-.2v-1.6a7,7,0,0,0,1.48.14,3,3,0,0,0,2.93-2.3l.73-1.87Z"/><path class="cls-8" d="M122,32.15a4.64,4.64,0,0,1,2,3.72c0,2-1.16,3-2.31,3.91a1.94,1.94,0,0,0-.77,1.35,1.51,1.51,0,0,0,.72,1.18l1,.77c1.21,1,2.31,2,2.31,3.85,0,2.59-2.5,5.2-7.24,5.2-4,0-5.92-1.9-5.92-3.94a4,4,0,0,1,2.12-3.36,11.86,11.86,0,0,1,5.26-1.27,2.88,2.88,0,0,1-.83-1.87,2.48,2.48,0,0,1,.28-1.07c-.3,0-.61.06-.88.06a4.35,4.35,0,0,1-4.57-4.32,5,5,0,0,1,1.76-3.69,7.5,7.5,0,0,1,4.93-1.51h5.67l-1.76,1Zm-2,12.22a4.25,4.25,0,0,0-.63,0,11,11,0,0,0-2.89.44,3.09,3.09,0,0,0-2.37,2.83c0,2,1.9,3.36,4.84,3.36,2.64,0,4-1.27,4-3C123.05,46.59,122.15,45.85,120.05,44.36Zm.8-5.23a2.78,2.78,0,0,0,.69-2c0-2-1.18-5.06-3.47-5.06a2.57,2.57,0,0,0-1.93.91,3.18,3.18,0,0,0-.61,2c0,1.84,1.07,4.9,3.44,4.9A2.82,2.82,0,0,0,120.85,39.13Z"/><path class="cls-8" d="M104.69,43.92A6.48,6.48,0,0,1,98,37.44a6.81,6.81,0,0,1,7.12-6.67,6.42,6.42,0,0,1,6.56,6.48A6.71,6.71,0,0,1,104.69,43.92Zm3.43-2.22a5,5,0,0,0,.83-3.05c0-2.42-1.15-7-4.56-7a3.83,3.83,0,0,0-2.47.94,4.16,4.16,0,0,0-1.26,3.35c0,2.72,1.35,7.19,4.67,7.19A3.51,3.51,0,0,0,108.12,41.7Z"/><path class="cls-8" d="M89.8,43.92a6.48,6.48,0,0,1-6.7-6.48,6.81,6.81,0,0,1,7.12-6.67,6.42,6.42,0,0,1,6.56,6.48A6.71,6.71,0,0,1,89.8,43.92Zm3.43-2.22a5,5,0,0,0,.82-3.05c0-2.42-1.15-7-4.56-7a3.83,3.83,0,0,0-2.47.94,4.16,4.16,0,0,0-1.26,3.35c0,2.72,1.35,7.19,4.67,7.19A3.51,3.51,0,0,0,93.23,41.7Z"/><path class="cls-8" d="M81,43.49,77,44.4a29.27,29.27,0,0,1-4.56.47c-7.62,0-10.52-5.61-10.52-10,0-5.36,4.11-10.33,11.16-10.33a15.91,15.91,0,0,1,4.22.58A10.77,10.77,0,0,1,81,26.84L78.7,29l-1,.22.69-1.1a7.89,7.89,0,0,0-5.91-2.59c-4.36,0-7.65,3.32-7.65,8.15,0,5.19,3.76,10.08,9.78,10.08a8.22,8.22,0,0,0,3.51-.69V38.63L74,38.85l2.21-1.19H82l-.72.69a.65.65,0,0,0-.28.44C81,39,81,39.85,81,40.12Z"/><path class="cls-8" d="M130.74,42.7c-.91-.08-1.1-.25-1.1-1.33V25.56c.11-1,.39-1.13,1.24-1.63h-4l-2.07,1H127V42c0,.55-.11.64-.75,1.46h4.89l1-.61C131.68,42.78,131.21,42.75,130.74,42.7Z"/><path class="cls-8" d="M142,43c-.3.16-.6.36-.9.49a6.39,6.39,0,0,1-2.66.52,5.86,5.86,0,0,1-3.65-1.07,7.1,7.1,0,0,1-2.8-5.79,6.22,6.22,0,0,1,6.28-6.33,5.33,5.33,0,0,1,2.83.77A4.54,4.54,0,0,1,143,34.26l-6.44,2.61-2.11.16c.68,3.48,3,5.51,5.65,5.51a7.09,7.09,0,0,0,3.35-1Zm-2.58-8.17c.52-.19.79-.36.79-.74a2.72,2.72,0,0,0-2.72-2.36c-1.1,0-3.15.85-3.15,3.81,0,.47.05,1,.08,1.45Z"/><path class="cls-8" d="M144.62,31v1.81h-.22V31h-.6v-.19h1.42V31Z"/><path class="cls-8" d="M147.09,32.77V30.94h0l-.56,1.83h-.17l-.56-1.83h0v1.83h-.2v-2h.34l.51,1.61h0l.5-1.61h.35v2Z"/><path class="cls-9" d="M67.45,19.17H66.08a9.09,9.09,0,0,0-.39-1.6h-2a8.27,8.27,0,0,0-.4,1.6H62q0-.17,1-2.74a21.54,21.54,0,0,0,1-2.84h1.62a23.65,23.65,0,0,0,.91,2.8A24.53,24.53,0,0,1,67.45,19.17Zm-2-2.42a24.18,24.18,0,0,1-.73-2.39h-.07q0,.17-.76,2.39Z"/><path class="cls-9" d="M73,19.17H71.92a10.47,10.47,0,0,0-1.18-1.86,10.23,10.23,0,0,1-1.41-2.42h-.07a15.13,15.13,0,0,1,.11,1.7q0,1.06.06,2.58H68.38q.06-1.33.06-2.92t-.06-2.66h1.27a8.07,8.07,0,0,0,1.06,1.81A10.68,10.68,0,0,1,72,17.68h.06A16.2,16.2,0,0,1,72,16q0-1.16-.06-2.38H73q-.06,1.06-.06,2.66T73,19.17Z"/><path class="cls-9" d="M79.2,16.18a3.16,3.16,0,0,1-.78,2.13,2.73,2.73,0,0,1-2.19.91q-.63,0-1.75-.05.06-1.3.06-2.92t-.06-2.66h1.78a2.89,2.89,0,0,1,2.25.77A2.67,2.67,0,0,1,79.2,16.18ZM78,16.37A2.07,2.07,0,0,0,77.55,15a1.82,1.82,0,0,0-1.47-.56l-.51,0q0,.86,0,1.79t0,2a2.84,2.84,0,0,0,.56.06,1.62,1.62,0,0,0,1.37-.57A2.21,2.21,0,0,0,78,16.37Z"/><path class="cls-9" d="M84.93,19.17H83.66a8.44,8.44,0,0,0-.76-1.87,1,1,0,0,0-.86-.36h-.48q0,1.1,0,2.23H80.41q.06-1.3.06-2.92t-.06-2.66h2q2,0,2,1.35a1.51,1.51,0,0,1-1.12,1.49v.06a1.34,1.34,0,0,1,.76.68A14.92,14.92,0,0,1,84.93,19.17Zm-1.61-3.95q0-.85-1.1-.85a3.75,3.75,0,0,0-.71.06q0,.66,0,1.73H82Q83.32,16.17,83.32,15.22Z"/><path class="cls-9" d="M91.08,16.27a3.08,3.08,0,0,1-.81,2.18,2.62,2.62,0,0,1-2,.87,2.52,2.52,0,0,1-1.9-.8,2.8,2.8,0,0,1-.76-2,3.08,3.08,0,0,1,.81-2.18,2.62,2.62,0,0,1,2-.87,2.52,2.52,0,0,1,1.9.79A2.8,2.8,0,0,1,91.08,16.27Zm-1.18.12a2.21,2.21,0,0,0-.46-1.45,1.41,1.41,0,0,0-1.13-.56,1.31,1.31,0,0,0-1.06.56,2.24,2.24,0,0,0-.44,1.42,2.21,2.21,0,0,0,.46,1.45,1.41,1.41,0,0,0,1.13.56,1.31,1.31,0,0,0,1.06-.56A2.24,2.24,0,0,0,89.89,16.4Z"/><path class="cls-9" d="M93.5,19.17H92.29q.06-1.33.06-2.92t-.06-2.66H93.5q-.06,1.08-.06,2.66T93.5,19.17Z"/><path class="cls-9" d="M99.72,16.18a3.16,3.16,0,0,1-.78,2.13,2.73,2.73,0,0,1-2.19.91q-.63,0-1.75-.05.06-1.3.06-2.92T95,13.59h1.78a2.89,2.89,0,0,1,2.25.77A2.67,2.67,0,0,1,99.72,16.18Zm-1.17.18A2.07,2.07,0,0,0,98.07,15a1.82,1.82,0,0,0-1.47-.56l-.51,0q0,.86,0,1.79t0,2a2.84,2.84,0,0,0,.56.06,1.62,1.62,0,0,0,1.37-.57A2.21,2.21,0,0,0,98.55,16.37Z"/><path class="cls-9" d="M108,19.17h-1.37a9.07,9.07,0,0,0-.39-1.6h-2a8.29,8.29,0,0,0-.4,1.6h-1.29q0-.17,1-2.74a21.52,21.52,0,0,0,1-2.84h1.62a23.67,23.67,0,0,0,.91,2.8A24.56,24.56,0,0,1,108,19.17Zm-2-2.42a24.25,24.25,0,0,1-.73-2.39h-.07q0,.17-.76,2.39Z"/><path class="cls-9" d="M113,15a1.67,1.67,0,0,1-.76,1.51,3.38,3.38,0,0,1-1.87.49H110q0,.81,0,2.13h-1.21q.06-1.24.06-2.92t-.06-2.66H111a2.45,2.45,0,0,1,1.38.37A1.25,1.25,0,0,1,113,15Zm-1.11.24q0-.92-1.22-.92a3.45,3.45,0,0,0-.64.06q0,.81,0,1.84h.25Q111.86,16.27,111.86,15.28Z"/><path class="cls-9" d="M118.11,15a1.67,1.67,0,0,1-.76,1.51,3.39,3.39,0,0,1-1.87.49h-.29q0,.81,0,2.13H114q.06-1.24.06-2.92T114,13.59h2.14a2.45,2.45,0,0,1,1.38.37A1.25,1.25,0,0,1,118.11,15Zm-1.11.24q0-.92-1.22-.92a3.45,3.45,0,0,0-.64.06q0,.81,0,1.84h.25Q117,16.27,117,15.28Z"/><path class="cls-9" d="M126.52,16.27a3.08,3.08,0,0,1-.81,2.18,2.62,2.62,0,0,1-2,.87,2.52,2.52,0,0,1-1.9-.8,2.8,2.8,0,0,1-.76-2,3.08,3.08,0,0,1,.81-2.18,2.62,2.62,0,0,1,2-.87,2.52,2.52,0,0,1,1.9.79A2.8,2.8,0,0,1,126.52,16.27Zm-1.18.12a2.21,2.21,0,0,0-.46-1.45,1.41,1.41,0,0,0-1.13-.56,1.31,1.31,0,0,0-1.06.56,2.24,2.24,0,0,0-.44,1.42,2.21,2.21,0,0,0,.46,1.45,1.41,1.41,0,0,0,1.13.56,1.31,1.31,0,0,0,1.06-.56A2.24,2.24,0,0,0,125.34,16.4Z"/><path class="cls-9" d="M132.33,19.17h-1.06a10.45,10.45,0,0,0-1.18-1.86,10.23,10.23,0,0,1-1.41-2.42h-.07a15.13,15.13,0,0,1,.11,1.7q0,1.06.06,2.58h-1.05q.06-1.33.06-2.92t-.06-2.66H129a8.08,8.08,0,0,0,1.06,1.81,10.67,10.67,0,0,1,1.3,2.29h.06a16.19,16.19,0,0,1-.1-1.72q0-1.16-.06-2.38h1.07q-.06,1.06-.06,2.66T132.33,19.17Z"/></g></g></svg>