<svg xmlns="http://www.w3.org/2000/svg" xmlns:xlink="http://www.w3.org/1999/xlink" viewBox="0 0 373.75 657"><defs><style>.cls-1{opacity:0.1;}.cls-10,.cls-2,.cls-4{fill:#fff;}.cls-3,.cls-5{fill:#e0e0e0;}.cls-4,.cls-5{fill-rule:evenodd;}.cls-6{fill:#333;}.cls-7{fill:url(#Degradado_sin_nombre_30);}.cls-8{fill:url(#Degradado_sin_nombre_3);}.cls-9{fill:url(#Degradado_sin_nombre_4);}.cls-10{opacity:0.8;}</style><linearGradient id="Degradado_sin_nombre_30" x1="7.89" y1="530.18" x2="409.83" y2="128.24" gradientUnits="userSpaceOnUse"><stop offset="0" stop-color="#3e4664"/><stop offset="1" stop-color="#26467b"/></linearGradient><linearGradient id="Degradado_sin_nombre_3" x1="150.99" y1="314.31" x2="206.56" y2="258.74" gradientUnits="userSpaceOnUse"><stop offset="0" stop-color="#eb1e79"/><stop offset="1" stop-color="#91278d"/></linearGradient><linearGradient id="Degradado_sin_nombre_4" x1="215.79" y1="323.57" x2="280.58" y2="258.78" gradientUnits="userSpaceOnUse"><stop offset="0.04" stop-color="#662d8f"/><stop offset="1" stop-color="#29a9e0"/></linearGradient></defs><title>Recurso 1</title><g id="Capa_2" data-name="Capa 2"><g id="Capa_1-2" data-name="Capa 1"><g class="cls-1"><rect x="4.88" width="320.03" height="657" rx="52.5" ry="52.5"/><path d="M0,196.15v38.44A1.43,1.43,0,0,0,1.43,236H3.58v-41.3H1.43A1.43,1.43,0,0,0,0,196.15Z"/><path d="M0,145.31v38.44a1.43,1.43,0,0,0,1.43,1.43H3.58v-41.3H1.43A1.43,1.43,0,0,0,0,145.31Z"/><path d="M0,97.66v21a1.43,1.43,0,0,0,1.43,1.43H3.58V96.22H1.43A1.43,1.43,0,0,0,0,97.66Z"/><path d="M328.35,143.88H326.2v41.3h2.15a1.43,1.43,0,0,0,1.43-1.43V145.31A1.43,1.43,0,0,0,328.35,143.88Z"/></g><g id="Rectangle_1_copy_5" data-name="Rectangle 1 copy 5"><rect class="cls-2" x="50.01" y="1.16" width="317.72" height="654.69" rx="51.34" ry="51.34"/><path class="cls-3" d="M316.38,2.31A50.18,50.18,0,0,1,366.57,52.5v552a50.18,50.18,0,0,1-50.18,50.18h-215A50.18,50.18,0,0,1,51.17,604.5V52.5A50.18,50.18,0,0,1,101.35,2.31h215m0-2.31h-215a52.56,52.56,0,0,0-52.5,52.5v552a52.56,52.56,0,0,0,52.5,52.5h215a52.56,52.56,0,0,0,52.5-52.5V52.5A52.56,52.56,0,0,0,316.38,0Z"/></g><g id="Ellipse_2" data-name="Ellipse 2"><path class="cls-4" d="M209.22,644.39a22.86,22.86,0,1,1,22.86-22.86A22.88,22.88,0,0,1,209.22,644.39Z"/><path class="cls-3" d="M209.22,599.83a21.7,21.7,0,1,1-21.7,21.7,21.73,21.73,0,0,1,21.7-21.7m0-2.31a24,24,0,1,0,24,24,24,24,0,0,0-24-24Z"/></g><g id="Rectangle_4_copy_2" data-name="Rectangle 4 copy 2"><path class="cls-5" d="M45.41,194.72A1.43,1.43,0,0,0,44,196.15v38.44A1.43,1.43,0,0,0,45.41,236h2.15v-41.3Z"/></g><g id="Rectangle_4_copy" data-name="Rectangle 4 copy"><path class="cls-5" d="M45.41,143.88A1.43,1.43,0,0,0,44,145.31v38.44a1.43,1.43,0,0,0,1.43,1.43h2.15v-41.3Z"/></g><g id="Rectangle_4" data-name="Rectangle 4"><path class="cls-5" d="M45.41,96.22A1.43,1.43,0,0,0,44,97.66v21a1.43,1.43,0,0,0,1.43,1.43h2.15V96.22Z"/></g><g id="Rectangle_4_copy_4" data-name="Rectangle 4 copy 4"><path class="cls-5" d="M372.32,143.88h-2.15v41.3h2.15a1.43,1.43,0,0,0,1.43-1.43V145.31A1.43,1.43,0,0,0,372.32,143.88Z"/></g><g id="Rectangle_2" data-name="Rectangle 2"><rect class="cls-3" x="181.82" y="35.14" width="54.1" height="5.8" rx="2.61" ry="2.61"/></g><g id="Ellipse_1" data-name="Ellipse 1"><circle class="cls-3" cx="156.53" cy="38.04" r="5.7"/></g><g id="Ellipse_1_copy" data-name="Ellipse 1 copy"><circle class="cls-3" cx="208.86" cy="13.78" r="3.8"/></g><rect class="cls-6" x="61.9" y="69.61" width="293.93" height="519.2" rx="2.31" ry="2.31"/><rect class="cls-7" x="64.21" y="71.92" width="289.3" height="514.57"/><path class="cls-8" d="M243.57,295.76l-9.22-9.22-9.26-9.26,0,0,0,0a26.18,26.18,0,0,0-37,0l-9.26,9.26a13.09,13.09,0,0,1-18.51,0L151,277.28a26.18,26.18,0,0,0-37,0h0l18.51,18.51L151,314.3a26.18,26.18,0,0,0,37,0l9.26-9.26,9.37-9.37h0a26.2,26.2,0,0,1,37,.1"/><path class="cls-9" d="M262.08,277.25l-8.54,8.54c-.22.25-.44.51-.69.75s-.5.47-.75.69l-8.53,8.53,0,0a26.2,26.2,0,0,0-37-.1h0L197.26,305a13.09,13.09,0,0,1,18.51,0L225,314.3l0,0,0,0a26.18,26.18,0,0,0,37,0c.35-.35.69-.72,1-1.08l17.43-17.43,18.51-18.51h0A26.18,26.18,0,0,0,262.08,277.25Z"/><path class="cls-2" d="M126.46,366.92a4.06,4.06,0,0,1-1.44.74,7.28,7.28,0,0,1-2.17.29,7.53,7.53,0,0,1-2.7-.44,2.59,2.59,0,0,1-1.52-1.23,21.2,21.2,0,0,1-1-2.89q-.55-2-1.08-4.33t-1-4.79q-.47-2.43-.74-4.29a4.93,4.93,0,0,1,3.38-1.33,3.77,3.77,0,0,1,2.18.59,2.76,2.76,0,0,1,1,2q.38,2.89.65,4.77l.44,3.08q.17,1.2.27,1.82t.17,1h.15q.11-.61.4-1.77t.67-2.64q.38-1.48.8-3.21l.84-3.44a8,8,0,0,1,1.5-.65,6.34,6.34,0,0,1,1.84-.23,5.64,5.64,0,0,1,2.28.42,2,2,0,0,1,1.22,1.29q.46,1.67.87,3.25t.76,2.92l.61,2.39q.27,1,.38,1.65h.19q.42-2.92.82-6.08t.74-6.42a5.16,5.16,0,0,1,1.44-.61,6.23,6.23,0,0,1,1.52-.19,4,4,0,0,1,2.2.57,2.18,2.18,0,0,1,.87,2,12.93,12.93,0,0,1-.19,1.82q-.19,1.22-.49,2.74t-.7,3.19q-.4,1.67-.8,3.23t-.76,2.81q-.36,1.25-.63,1.94a4.1,4.1,0,0,1-1.63.74,9.36,9.36,0,0,1-2.36.29q-3.19,0-3.76-1.6l-.57-1.73q-.34-1-.72-2.3t-.72-2.6q-.34-1.35-.57-2.6-.27,1.33-.65,2.75t-.78,2.77q-.4,1.35-.74,2.47T126.46,366.92Z"/><path class="cls-2" d="M146,349.29a8.75,8.75,0,0,1,1.2-.23,12.18,12.18,0,0,1,1.69-.11,8.91,8.91,0,0,1,1.5.11,2.57,2.57,0,0,1,1.12.46,2.19,2.19,0,0,1,.7.93,4,4,0,0,1,.25,1.54v8.17a2.82,2.82,0,0,0,.76,2.22,3.25,3.25,0,0,0,2.2.67,5.54,5.54,0,0,0,1.42-.15,4.94,4.94,0,0,0,.85-.3V349.29a8.75,8.75,0,0,1,1.2-.23,12.18,12.18,0,0,1,1.69-.11,8.91,8.91,0,0,1,1.5.11,2.56,2.56,0,0,1,1.12.46,2.19,2.19,0,0,1,.7.93,4,4,0,0,1,.25,1.54v11.55a3.1,3.1,0,0,1-1.59,2.85,10.45,10.45,0,0,1-3.17,1.27,17.37,17.37,0,0,1-4,.44,14.8,14.8,0,0,1-3.78-.46,8.45,8.45,0,0,1-3-1.41,6.28,6.28,0,0,1-1.94-2.45,8.7,8.7,0,0,1-.68-3.63Z"/><path class="cls-2" d="M175.69,348.45a15.61,15.61,0,0,1,3.74.42,8.35,8.35,0,0,1,2.89,1.27,5.74,5.74,0,0,1,1.84,2.17,6.94,6.94,0,0,1,.65,3.1v8.51a2.36,2.36,0,0,1-.55,1.61,5.47,5.47,0,0,1-1.31,1.08,13.57,13.57,0,0,1-7,1.48,15.89,15.89,0,0,1-3.63-.38,8.58,8.58,0,0,1-2.77-1.14,5.22,5.22,0,0,1-1.79-1.94,5.73,5.73,0,0,1-.63-2.74,5.14,5.14,0,0,1,1.56-4,8.4,8.4,0,0,1,4.82-1.75l5-.53v-.27a1.63,1.63,0,0,0-1-1.58,6.52,6.52,0,0,0-2.79-.47,13,13,0,0,0-2.81.3,15,15,0,0,0-2.47.76,2.62,2.62,0,0,1-.84-1,3.3,3.3,0,0,1-.34-1.46,2.44,2.44,0,0,1,.47-1.58,3.68,3.68,0,0,1,1.46-1,11.43,11.43,0,0,1,2.6-.61A22.7,22.7,0,0,1,175.69,348.45Zm.3,14.93a8.5,8.5,0,0,0,1.42-.13,3.49,3.49,0,0,0,1.16-.36v-3l-2.73.23a4.21,4.21,0,0,0-1.75.46,1.23,1.23,0,0,0-.68,1.14,1.51,1.51,0,0,0,.59,1.23A3.22,3.22,0,0,0,176,363.38Z"/><path class="cls-2" d="M188.6,343.9a3.34,3.34,0,0,1,1-2.43,3.82,3.82,0,0,1,5.13,0,3.53,3.53,0,0,1,0,4.86,3.82,3.82,0,0,1-5.13,0A3.34,3.34,0,0,1,188.6,343.9Zm6.76,23.55-1.24.21a10.23,10.23,0,0,1-1.65.13,8.9,8.9,0,0,1-1.5-.11,2.55,2.55,0,0,1-1.12-.46,2.19,2.19,0,0,1-.7-.93,4,4,0,0,1-.25-1.54V349.29l1.23-.21a10.25,10.25,0,0,1,1.65-.13,8.92,8.92,0,0,1,1.5.11,2.56,2.56,0,0,1,1.12.46,2.2,2.2,0,0,1,.7.93,4,4,0,0,1,.25,1.54Z"/><path class="cls-2" d="M211.16,355.79a2.12,2.12,0,0,0-.67-1.73,2.74,2.74,0,0,0-1.8-.55,6,6,0,0,0-1.5.19,3.79,3.79,0,0,0-1.27.57v13.18a8.67,8.67,0,0,1-1.2.23,12.2,12.2,0,0,1-1.69.11,8.92,8.92,0,0,1-1.5-.11,2.55,2.55,0,0,1-1.12-.46,2.2,2.2,0,0,1-.7-.93,4,4,0,0,1-.25-1.54v-11.4a2.93,2.93,0,0,1,.44-1.67,4.61,4.61,0,0,1,1.2-1.18,10.88,10.88,0,0,1,3.25-1.48,15.52,15.52,0,0,1,4.35-.57,10.25,10.25,0,0,1,6.61,1.88,6.35,6.35,0,0,1,2.32,5.22v11.89a8.67,8.67,0,0,1-1.2.23,12.2,12.2,0,0,1-1.69.11,8.9,8.9,0,0,1-1.5-.11,2.55,2.55,0,0,1-1.12-.46,2.19,2.19,0,0,1-.7-.93,4,4,0,0,1-.25-1.54Z"/><path class="cls-10" d="M220.47,364.41a3.75,3.75,0,0,1,1-2.66,4,4,0,0,1,5.39,0,4.07,4.07,0,0,1,0,5.32,4,4,0,0,1-5.39,0A3.75,3.75,0,0,1,220.47,364.41Z"/><path class="cls-10" d="M240.68,353.54a5.35,5.35,0,0,0-1.8.3,4.18,4.18,0,0,0-1.48.89,4.37,4.37,0,0,0-1,1.46,5.1,5.1,0,0,0-.38,2.05,4.44,4.44,0,0,0,1.35,3.53,4.82,4.82,0,0,0,3.29,1.18,6.53,6.53,0,0,0,2-.27,12.17,12.17,0,0,0,1.48-.57,4,4,0,0,1,1.14,1.16,2.84,2.84,0,0,1,.38,1.5,2.66,2.66,0,0,1-1.48,2.41,8.24,8.24,0,0,1-4.1.85,12.64,12.64,0,0,1-4.33-.7,9.79,9.79,0,0,1-3.32-2,8.72,8.72,0,0,1-2.15-3.06,10,10,0,0,1-.76-4,10.93,10.93,0,0,1,.82-4.39,8.48,8.48,0,0,1,2.22-3.1,9.42,9.42,0,0,1,3.25-1.82,12.38,12.38,0,0,1,3.89-.61,7.58,7.58,0,0,1,4.22,1,3,3,0,0,1,1.48,2.54,2.77,2.77,0,0,1-.34,1.35,4.71,4.71,0,0,1-.8,1.08,12.28,12.28,0,0,0-1.56-.59A6.58,6.58,0,0,0,240.68,353.54Z"/><path class="cls-10" d="M267.38,358.25a11.45,11.45,0,0,1-.72,4.2,8.51,8.51,0,0,1-2,3.1,8.65,8.65,0,0,1-3.13,1.9,12.11,12.11,0,0,1-4.06.65,11.49,11.49,0,0,1-4.06-.68,8.94,8.94,0,0,1-3.13-2,8.7,8.7,0,0,1-2-3.1,11.91,11.91,0,0,1,0-8.17,8.72,8.72,0,0,1,2-3.1,9,9,0,0,1,3.13-2,11.49,11.49,0,0,1,4.06-.68,11.24,11.24,0,0,1,4.06.7,9.21,9.21,0,0,1,3.13,2,8.74,8.74,0,0,1,2,3.1A10.87,10.87,0,0,1,267.38,358.25Zm-13.29,0a6,6,0,0,0,.89,3.55,2.89,2.89,0,0,0,2.49,1.23,2.79,2.79,0,0,0,2.45-1.25,6.22,6.22,0,0,0,.86-3.53,6,6,0,0,0-.87-3.51,3.09,3.09,0,0,0-4.94,0A6,6,0,0,0,254.09,358.25Z"/><path class="cls-10" d="M279.38,348.45a10.9,10.9,0,0,1,3.06.44,7.54,7.54,0,0,1,2.6,1.31,11.28,11.28,0,0,1,2.56-1.25,10.57,10.57,0,0,1,3.44-.49,10.68,10.68,0,0,1,2.83.38,7.23,7.23,0,0,1,2.47,1.2,5.8,5.8,0,0,1,1.73,2.17,7.58,7.58,0,0,1,.65,3.29v12a8.7,8.7,0,0,1-1.2.23,12.2,12.2,0,0,1-1.69.11,8.92,8.92,0,0,1-1.5-.11,2.55,2.55,0,0,1-1.12-.46,2.2,2.2,0,0,1-.7-.93,4,4,0,0,1-.25-1.54v-9.08a2,2,0,0,0-.65-1.65,2.73,2.73,0,0,0-1.75-.51,3,3,0,0,0-1.14.25,3.29,3.29,0,0,0-.91.51,1.22,1.22,0,0,1,0,.29v12.9a10.4,10.4,0,0,1-1.23.23,11.92,11.92,0,0,1-1.65.11,8.9,8.9,0,0,1-1.5-.11,2.56,2.56,0,0,1-1.12-.46,2.19,2.19,0,0,1-.7-.93,4,4,0,0,1-.25-1.54v-9.08a1.91,1.91,0,0,0-.7-1.65,2.79,2.79,0,0,0-1.69-.51,3,3,0,0,0-1.18.21,8.94,8.94,0,0,0-.84.4v13.33a8.67,8.67,0,0,1-1.2.23,12.2,12.2,0,0,1-1.69.11,8.92,8.92,0,0,1-1.5-.11,2.55,2.55,0,0,1-1.12-.46,2.2,2.2,0,0,1-.7-.93,4,4,0,0,1-.25-1.54V353.28a2.75,2.75,0,0,1,.44-1.63,5,5,0,0,1,1.2-1.14,10.93,10.93,0,0,1,3.21-1.48A14,14,0,0,1,279.38,348.45Z"/></g></g></svg>