<svg xmlns="http://www.w3.org/2000/svg" viewBox="0 0 260.97 138.89"><defs><style>.cls-1,.cls-2{fill:#fff;}.cls-2{opacity:0.8;}</style></defs><title>Recurso 4</title><g id="Capa_2" data-name="Capa 2"><g id="Capa_1-2" data-name="Capa 1"><path class="cls-1" d="M182.72,36.86l-13-13-13-13,0,0,0,0a36.91,36.91,0,0,0-52.19,0l-13,13a18.45,18.45,0,0,1-26.1,0l-13-13A36.91,36.91,0,0,0,0,10.81H0l26.1,26.1L52.19,63a36.91,36.91,0,0,0,52.19,0l13-13,13.21-13.21h0a36.93,36.93,0,0,1,52.09.14"/><path class="cls-2" d="M208.82,10.77l-12,12c-.31.36-.63.71-1,1.05s-.7.67-1.06,1l-12,12,0,0a36.93,36.93,0,0,0-52.09-.14h0L117.43,50a18.45,18.45,0,0,1,26.1,0l13,13,0,0,0,0a36.91,36.91,0,0,0,52.19,0c.5-.5,1-1,1.44-1.53l24.57-24.57L261,10.81h0A36.91,36.91,0,0,0,208.82,10.77Z"/><path class="cls-1" d="M17.62,137.18a5.71,5.71,0,0,1-2,1,10.25,10.25,0,0,1-3.05.4,10.63,10.63,0,0,1-3.8-.62,3.66,3.66,0,0,1-2.14-1.74,29.94,29.94,0,0,1-1.36-4.07q-.78-2.78-1.53-6.1t-1.42-6.75q-.67-3.43-1-6.05a6.61,6.61,0,0,1,2-1.31A6.68,6.68,0,0,1,6,111.42a5.31,5.31,0,0,1,3.08.83,3.89,3.89,0,0,1,1.47,2.87q.53,4.07.91,6.72l.61,4.34q.24,1.69.37,2.57c.09.59.17,1.06.24,1.42h.22q.16-.86.56-2.49t.94-3.72q.53-2.09,1.13-4.53t1.18-4.85a11.22,11.22,0,0,1,2.11-.91,9,9,0,0,1,2.6-.32,8,8,0,0,1,3.21.59,2.88,2.88,0,0,1,1.71,1.82q.65,2.36,1.23,4.58t1.07,4.12l.86,3.37q.37,1.47.53,2.33h.27q.59-4.12,1.15-8.57t1-9a7.28,7.28,0,0,1,2-.86,8.79,8.79,0,0,1,2.14-.27,5.57,5.57,0,0,1,3.1.8A3.07,3.07,0,0,1,41,115a18.31,18.31,0,0,1-.27,2.57q-.27,1.72-.7,3.86t-1,4.5q-.56,2.36-1.13,4.55t-1.07,4q-.51,1.77-.89,2.73a5.75,5.75,0,0,1-2.3,1,13.18,13.18,0,0,1-3.32.4q-4.5,0-5.3-2.25l-.8-2.44q-.48-1.47-1-3.24t-1-3.67q-.48-1.9-.8-3.67-.37,1.88-.91,3.88t-1.1,3.91q-.56,1.9-1,3.48T17.62,137.18Z"/><path class="cls-1" d="M45.14,112.33a12.65,12.65,0,0,1,1.69-.32,17.28,17.28,0,0,1,2.38-.16,12.65,12.65,0,0,1,2.12.16,3.62,3.62,0,0,1,1.58.64,3.07,3.07,0,0,1,1,1.31,5.7,5.7,0,0,1,.35,2.17v11.51a4,4,0,0,0,1.07,3.13,4.58,4.58,0,0,0,3.1.94,7.67,7.67,0,0,0,2-.22,6.82,6.82,0,0,0,1.21-.43V112.33a12.55,12.55,0,0,1,1.69-.32,17.22,17.22,0,0,1,2.38-.16,12.61,12.61,0,0,1,2.11.16,3.63,3.63,0,0,1,1.58.64,3.09,3.09,0,0,1,1,1.31,5.7,5.7,0,0,1,.35,2.17v16.28a4.37,4.37,0,0,1-2.25,4A14.69,14.69,0,0,1,64,138.22a24.5,24.5,0,0,1-5.65.62,20.83,20.83,0,0,1-5.33-.64,11.89,11.89,0,0,1-4.2-2,8.86,8.86,0,0,1-2.73-3.45,12.29,12.29,0,0,1-1-5.12Z"/><path class="cls-1" d="M87,111.15a22,22,0,0,1,5.28.59,11.84,11.84,0,0,1,4.07,1.79,8.13,8.13,0,0,1,2.6,3.05,9.78,9.78,0,0,1,.91,4.37v12a3.32,3.32,0,0,1-.78,2.28,7.75,7.75,0,0,1-1.85,1.53q-3.48,2.09-9.8,2.09a22.43,22.43,0,0,1-5.12-.54,12.11,12.11,0,0,1-3.91-1.61A7.39,7.39,0,0,1,75.9,134a8.09,8.09,0,0,1-.88-3.86,7.25,7.25,0,0,1,2.2-5.68q2.2-2,6.8-2.46l7-.75v-.37a2.3,2.3,0,0,0-1.37-2.22,9.2,9.2,0,0,0-3.94-.67,18.24,18.24,0,0,0-4,.43,21.33,21.33,0,0,0-3.48,1.07A3.7,3.7,0,0,1,77.11,118a4.66,4.66,0,0,1-.48-2.06,3.44,3.44,0,0,1,.67-2.22,5.18,5.18,0,0,1,2.06-1.42,16.08,16.08,0,0,1,3.67-.86A31.85,31.85,0,0,1,87,111.15Zm.43,21a12,12,0,0,0,2-.19,4.87,4.87,0,0,0,1.63-.51v-4.28l-3.86.32a5.94,5.94,0,0,0-2.46.64,1.73,1.73,0,0,0-1,1.61,2.12,2.12,0,0,0,.83,1.74A4.53,4.53,0,0,0,87.44,132.2Z"/><path class="cls-1" d="M105.22,104.72a4.71,4.71,0,0,1,1.37-3.43,5.39,5.39,0,0,1,7.23,0,5,5,0,0,1,0,6.85,5.39,5.39,0,0,1-7.23,0A4.71,4.71,0,0,1,105.22,104.72Zm9.53,33.2-1.74.29a14.49,14.49,0,0,1-2.33.19,12.61,12.61,0,0,1-2.11-.16,3.61,3.61,0,0,1-1.58-.64,3.1,3.1,0,0,1-1-1.31,5.63,5.63,0,0,1-.35-2.17V112.33l1.74-.29a14.53,14.53,0,0,1,2.33-.19,12.64,12.64,0,0,1,2.11.16,3.62,3.62,0,0,1,1.58.64,3.07,3.07,0,0,1,1,1.31,5.7,5.7,0,0,1,.35,2.17Z"/><path class="cls-1" d="M137,121.49a3,3,0,0,0-.94-2.44,3.86,3.86,0,0,0-2.54-.78,8.49,8.49,0,0,0-2.11.27,5.37,5.37,0,0,0-1.79.8v18.58a12.36,12.36,0,0,1-1.69.32,17.25,17.25,0,0,1-2.38.16,12.59,12.59,0,0,1-2.11-.16,3.6,3.6,0,0,1-1.58-.64,3.1,3.1,0,0,1-1-1.31,5.62,5.62,0,0,1-.35-2.17V118.06a4.11,4.11,0,0,1,.62-2.36,6.46,6.46,0,0,1,1.69-1.66,15.33,15.33,0,0,1,4.58-2.09,21.92,21.92,0,0,1,6.13-.8q6.05,0,9.32,2.65a9,9,0,0,1,3.26,7.36v16.76a12.39,12.39,0,0,1-1.68.32,17.29,17.29,0,0,1-2.39.16,12.61,12.61,0,0,1-2.11-.16,3.6,3.6,0,0,1-1.58-.64,3.08,3.08,0,0,1-1-1.31,5.68,5.68,0,0,1-.35-2.17Z"/><path class="cls-2" d="M150.15,133.64a5.3,5.3,0,0,1,1.39-3.75,5.57,5.57,0,0,1,7.6,0,5.74,5.74,0,0,1,0,7.5,5.57,5.57,0,0,1-7.6,0A5.3,5.3,0,0,1,150.15,133.64Z"/><path class="cls-2" d="M178.64,118.33a7.53,7.53,0,0,0-2.54.43A5.88,5.88,0,0,0,174,120a6.12,6.12,0,0,0-1.42,2.06,7.22,7.22,0,0,0-.53,2.89,6.26,6.26,0,0,0,1.9,5,6.79,6.79,0,0,0,4.63,1.66,9.18,9.18,0,0,0,2.78-.37,16.71,16.71,0,0,0,2.09-.8,5.53,5.53,0,0,1,1.61,1.63,4,4,0,0,1,.53,2.11,3.75,3.75,0,0,1-2.09,3.4,11.63,11.63,0,0,1-5.78,1.2,17.83,17.83,0,0,1-6.1-1,13.78,13.78,0,0,1-4.68-2.78,12.33,12.33,0,0,1-3-4.31,14.11,14.11,0,0,1-1.07-5.57,15.43,15.43,0,0,1,1.15-6.18,12,12,0,0,1,3.13-4.37A13.29,13.29,0,0,1,171.7,112a17.44,17.44,0,0,1,5.49-.86,10.69,10.69,0,0,1,5.94,1.39,4.17,4.17,0,0,1,2.09,3.59,3.91,3.91,0,0,1-.48,1.9,6.55,6.55,0,0,1-1.13,1.53,17.48,17.48,0,0,0-2.2-.83A9.3,9.3,0,0,0,178.64,118.33Z"/><path class="cls-2" d="M216.28,125a16.15,16.15,0,0,1-1,5.92,12,12,0,0,1-2.87,4.36,12.15,12.15,0,0,1-4.42,2.68,17.1,17.1,0,0,1-5.73.91,16.21,16.21,0,0,1-5.73-1,12.58,12.58,0,0,1-4.42-2.76,12.32,12.32,0,0,1-2.87-4.36,16.82,16.82,0,0,1,0-11.51,12.33,12.33,0,0,1,2.87-4.37,12.57,12.57,0,0,1,4.42-2.76,16.21,16.21,0,0,1,5.73-1,15.81,15.81,0,0,1,5.73,1,12.92,12.92,0,0,1,4.42,2.78,12.33,12.33,0,0,1,2.87,4.37A15.32,15.32,0,0,1,216.28,125Zm-18.74,0a8.47,8.47,0,0,0,1.26,5,4.08,4.08,0,0,0,3.51,1.74,3.93,3.93,0,0,0,3.45-1.77,8.79,8.79,0,0,0,1.2-5,8.51,8.51,0,0,0-1.23-5,4.35,4.35,0,0,0-7,0A8.51,8.51,0,0,0,197.54,125Z"/><path class="cls-2" d="M233.2,111.15a15.38,15.38,0,0,1,4.31.61,10.61,10.61,0,0,1,3.67,1.85,15.86,15.86,0,0,1,3.62-1.77,14.87,14.87,0,0,1,4.84-.7,15.05,15.05,0,0,1,4,.53,10.2,10.2,0,0,1,3.48,1.69,8.13,8.13,0,0,1,2.44,3.05,10.68,10.68,0,0,1,.91,4.63v16.87a12.56,12.56,0,0,1-1.69.32,17.28,17.28,0,0,1-2.38.16,12.59,12.59,0,0,1-2.11-.16,3.6,3.6,0,0,1-1.58-.64,3.1,3.1,0,0,1-1-1.31,5.68,5.68,0,0,1-.35-2.17v-12.8a2.8,2.8,0,0,0-.91-2.33,3.86,3.86,0,0,0-2.47-.72,4.28,4.28,0,0,0-1.6.35,4.63,4.63,0,0,0-1.29.72,1.66,1.66,0,0,1,.05.4v18.18a15.16,15.16,0,0,1-1.74.32,16.88,16.88,0,0,1-2.33.16,12.59,12.59,0,0,1-2.11-.16,3.6,3.6,0,0,1-1.58-.64,3.1,3.1,0,0,1-1-1.31,5.68,5.68,0,0,1-.35-2.17v-12.8a2.69,2.69,0,0,0-1-2.33,3.93,3.93,0,0,0-2.38-.72,4.24,4.24,0,0,0-1.66.29,12.5,12.5,0,0,0-1.18.56v18.8a12.36,12.36,0,0,1-1.69.32,17.25,17.25,0,0,1-2.38.16,12.59,12.59,0,0,1-2.11-.16,3.6,3.6,0,0,1-1.58-.64,3.1,3.1,0,0,1-1-1.31,5.62,5.62,0,0,1-.35-2.17V118a3.86,3.86,0,0,1,.62-2.3A6.91,6.91,0,0,1,223,114a15.4,15.4,0,0,1,4.52-2.09A19.77,19.77,0,0,1,233.2,111.15Z"/></g></g></svg>